<?xml version="1.0" standalone="no"?>
<!DOCTYPE svg PUBLIC "-//W3C//DTD SVG 20010904//EN"
 "http://www.w3.org/TR/2001/REC-SVG-20010904/DTD/svg10.dtd">
<svg version="1.0" xmlns="http://www.w3.org/2000/svg"
 width="726.000000pt" height="726.000000pt" viewBox="0 0 726.000000 726.000000"
 preserveAspectRatio="xMidYMid meet">
<metadata>
Created by potrace 1.11, written by Peter Selinger 2001-2013
</metadata>
<g transform="translate(0.000000,726.000000) scale(0.100000,-0.100000)"
fill="#000000" stroke="none">
<path d="M3319 7209 c-437 -36 -941 -183 -1334 -388 -1374 -718 -2132 -2219
-1890 -3744 207 -1309 1134 -2405 2394 -2832 575 -195 1207 -236 1831 -120
372 70 791 229 1121 426 885 528 1496 1381 1698 2369 56 274 65 378 65 720 0
342 -9 446 -65 720 -129 630 -418 1197 -860 1686 -473 524 -1104 902 -1782
1068 -172 43 -410 82 -572 96 -138 11 -465 11 -606 -1z m761 -198 c404 -60
706 -152 1045 -317 750 -365 1358 -1022 1665 -1799 321 -814 321 -1696 0
-2510 -200 -505 -549 -993 -957 -1334 -455 -382 -969 -632 -1533 -745 -249
-50 -357 -60 -665 -60 -313 0 -396 7 -645 55 -674 130 -1281 452 -1767 938
-465 464 -795 1076 -922 1707 -58 288 -66 373 -66 694 0 320 9 407 66 690 191
953 797 1781 1666 2278 367 210 834 359 1283 411 158 18 176 19 440 15 189 -2
290 -8 390 -23z"/>
<path d="M2173 3893 c2 -2111 4 -2252 20 -2313 58 -212 212 -381 418 -457 l74
-28 1468 -3 1467 -2 0 367 c0 418 -4 444 -72 577 -60 115 -164 218 -278 273
-150 74 -140 73 -1019 73 l-780 0 -4 1613 c-3 1519 -4 1615 -21 1672 -62 207
-227 380 -426 448 -62 21 -84 22 -458 25 l-392 3 3 -2248z"/>
</g>
</svg>
