<?xml version="1.0" standalone="no"?>
<!DOCTYPE svg PUBLIC "-//W3C//DTD SVG 20010904//EN"
 "http://www.w3.org/TR/2001/REC-SVG-20010904/DTD/svg10.dtd">
<svg version="1.0" xmlns="http://www.w3.org/2000/svg"
 width="726.000000pt" height="726.000000pt" viewBox="0 0 726.000000 726.000000"
 preserveAspectRatio="xMidYMid meet">
<metadata>
Created by potrace 1.11, written by Peter Selinger 2001-2013
</metadata>
<g transform="translate(0.000000,726.000000) scale(0.100000,-0.100000)"
fill="#000000" stroke="none">
<path d="M3381 7209 c-275 -18 -652 -94 -910 -184 -1043 -364 -1849 -1169
-2219 -2215 -325 -919 -240 -2005 223 -2852 296 -541 680 -963 1177 -1296 223
-149 439 -261 693 -360 605 -236 1275 -299 1928 -182 382 69 797 220 1122 407
132 76 353 227 470 319 145 115 460 431 567 569 332 428 551 873 672 1366 354
1437 -203 2922 -1421 3787 -528 375 -1169 600 -1828 642 -180 11 -280 11 -474
-1z m564 -180 c436 -37 913 -181 1298 -390 612 -333 1119 -856 1426 -1469 155
-311 243 -572 305 -902 46 -245 51 -310 51 -628 0 -318 -5 -383 -51 -628 -256
-1373 -1339 -2458 -2714 -2717 -285 -54 -657 -72 -945 -45 -464 43 -979 202
-1350 417 -492 285 -884 655 -1201 1133 -377 567 -576 1321 -534 2022 28 466
133 882 326 1288 338 708 946 1305 1659 1628 547 248 1113 343 1730 291z"/>
<path d="M2182 3878 c3 -2177 4 -2265 22 -2318 75 -224 219 -369 440 -443 60
-21 76 -21 1519 -24 l1457 -3 0 352 c0 403 -5 443 -71 578 -57 115 -170 231
-279 283 -153 74 -104 71 -1002 75 l-808 3 0 1599 c0 1123 -3 1615 -11 1652
-6 29 -31 95 -55 147 -37 79 -57 107 -122 170 -89 88 -182 142 -298 171 -70
18 -112 20 -436 20 l-358 0 2 -2262z"/>
</g>
</svg>
