<?xml version="1.0" standalone="no"?>
<!DOCTYPE svg PUBLIC "-//W3C//DTD SVG 20010904//EN"
 "http://www.w3.org/TR/2001/REC-SVG-20010904/DTD/svg10.dtd">
<svg version="1.0" xmlns="http://www.w3.org/2000/svg"
 width="200.000000pt" height="200.000000pt" viewBox="0 0 200.000000 200.000000"
 preserveAspectRatio="xMidYMid meet">
<metadata>
Created by potrace 1.11, written by Peter Selinger 2001-2013
</metadata>
<g transform="translate(0.000000,200.000000) scale(0.100000,-0.100000)"
fill="#000000" stroke="none">
<path d="M296 1655 c-15 -19 -21 -23 -28 -13 -22 35 -3 -12 36 -90 73 -146
138 -383 151 -548 7 -103 15 -349 15 -516 0 -140 1 -148 21 -159 17 -9 23 -8
30 2 7 11 9 10 9 -3 0 -10 9 -22 20 -28 19 -10 20 -7 22 87 l2 98 5 -99 6
-100 55 -22 55 -22 6 71 5 72 2 -70 c1 -38 6 -75 10 -82 4 -6 6 95 4 225 -7
499 35 709 170 857 26 29 48 58 48 64 0 17 30 28 110 40 147 23 178 32 184 49
3 9 9 23 12 30 3 7 -1 12 -11 12 -9 0 -14 -4 -11 -9 3 -4 -6 -6 -20 -3 -46 8
-319 -42 -309 -58 4 -7 -24 -24 -30 -18 -2 2 1 13 6 26 11 28 31 36 159 57
132 22 161 37 60 31 -80 -4 -230 -30 -267 -46 -18 -7 -23 -6 -23 4 0 50 21 60
163 81 96 15 133 25 91 25 -25 0 -295 -47 -300 -52 -2 -3 -10 -22 -18 -44
l-15 -39 6 58 6 59 -25 -24 c-14 -12 -29 -39 -33 -58 -16 -76 -25 -63 -20 30
6 102 7 102 -35 3 -8 -18 -18 -33 -22 -33 -4 0 -9 33 -9 73 -1 39 -4 63 -6 52
-3 -11 -11 -24 -19 -28 -8 -4 -14 -17 -14 -27 0 -10 -4 -21 -9 -24 -5 -3 -13
27 -17 67 -4 39 -10 61 -12 48 -2 -13 -10 -31 -18 -38 -8 -8 -14 -24 -15 -36
-1 -25 -4 -19 -19 41 l-11 44 -24 -28 -25 -29 -6 34 -7 34 -23 -26 -23 -27
-13 25 -13 25 -19 -25z m181 -547 c-3 -8 -6 -5 -6 6 -1 11 2 17 5 13 3 -3 4
-12 1 -19z m200 -350 c-3 -8 -6 -5 -6 6 -1 11 2 17 5 13 3 -3 4 -12 1 -19z m0
-385 c-1 -65 -3 -14 -3 112 0 127 2 180 3 118 2 -62 2 -165 0 -230z m-50 -10
c-1 -49 -3 -9 -3 87 0 96 2 136 3 88 2 -49 2 -127 0 -175z"/>
<path d="M1100 260 c-294 -55 -320 -61 -313 -73 4 -6 0 -8 -10 -4 -10 3 -17 3
-17 -2 0 -22 159 -23 290 -2 130 21 273 54 315 72 l40 17 -38 7 c-27 5 -35 10
-25 16 23 15 -29 8 -242 -31z"/>
</g>
</svg>
